{
	"asset":{
		"generator":"Khronos glTF Blender I/O v4.5.48",
		"version":"2.0"
	},
	"scene":0,
	"scenes":[
		{
			"name":"Scene",
			"nodes":[
				7
			]
		}
	],
	"nodes":[
		{
			"mesh":0,
			"name":"Object_2"
		},
		{
			"mesh":1,
			"name":"Object_3"
		},
		{
			"mesh":2,
			"name":"Object_4"
		},
		{
			"mesh":3,
			"name":"Object_5"
		},
		{
			"mesh":4,
			"name":"Object_6"
		},
		{
			"mesh":5,
			"name":"Object_7"
		},
		{
			"children":[
				0,
				1,
				2,
				3,
				4,
				5
			],
			"name":"Woodcutting_with_splitting_machine_SF.obj.cleaner.materialmerge"
		},
		{
			"children":[
				6
			],
			"name":"Sketchfab_model",
			"rotation":[
				-0.70710688829422,
				0,
				0,
				0.7071066498756409
			]
		}
	],
	"materials":[
		{
			"doubleSided":true,
			"emissiveFactor":[
				0.68595290184021,
				0.68595290184021,
				0.68595290184021
			],
			"emissiveTexture":{
				"index":0
			},
			"name":"Woodcutters",
			"normalTexture":{
				"index":1
			},
			"occlusionTexture":{
				"index":2
			},
			"pbrMetallicRoughness":{
				"baseColorFactor":[
					0.5185499787330627,
					0.5185499787330627,
					0.5185499787330627,
					1
				],
				"baseColorTexture":{
					"index":3
				},
				"metallicFactor":0,
				"metallicRoughnessTexture":{
					"index":2
				}
			}
		}
	],
	"meshes":[
		{
			"name":"Object_0",
			"primitives":[
				{
					"attributes":{
						"POSITION":0,
						"NORMAL":1,
						"TEXCOORD_0":2
					},
					"indices":3,
					"material":0
				}
			]
		},
		{
			"name":"Object_1",
			"primitives":[
				{
					"attributes":{
						"POSITION":4,
						"NORMAL":5,
						"TEXCOORD_0":6
					},
					"indices":7,
					"material":0
				}
			]
		},
		{
			"name":"Object_2",
			"primitives":[
				{
					"attributes":{
						"POSITION":8,
						"NORMAL":9,
						"TEXCOORD_0":10
					},
					"indices":11,
					"material":0
				}
			]
		},
		{
			"name":"Object_3",
			"primitives":[
				{
					"attributes":{
						"POSITION":12,
						"NORMAL":13,
						"TEXCOORD_0":14
					},
					"indices":15,
					"material":0
				}
			]
		},
		{
			"name":"Object_4",
			"primitives":[
				{
					"attributes":{
						"POSITION":16,
						"NORMAL":17,
						"TEXCOORD_0":18
					},
					"indices":19,
					"material":0
				}
			]
		},
		{
			"name":"Object_5",
			"primitives":[
				{
					"attributes":{
						"POSITION":20,
						"NORMAL":21,
						"TEXCOORD_0":22
					},
					"indices":23,
					"material":0
				}
			]
		}
	],
	"textures":[
		{
			"sampler":0,
			"source":0
		},
		{
			"sampler":0,
			"source":1
		},
		{
			"sampler":0,
			"source":2
		},
		{
			"sampler":0,
			"source":0
		}
	],
	"images":[
		{
			"mimeType":"image/jpeg",
			"name":"Image_0",
			"uri":"Image_0.jpg"
		},
		{
			"mimeType":"image/png",
			"name":"Image_2",
			"uri":"Image_2.png"
		},
		{
			"mimeType":"image/png",
			"name":"Image_1",
			"uri":"Image_1.png"
		}
	],
	"accessors":[
		{
			"bufferView":0,
			"componentType":5126,
			"count":70971,
			"max":[
				1.7464909553527832,
				1.6875109672546387,
				0.5947549939155579
			],
			"min":[
				-1.7485690116882324,
				-1.5070070028305054,
				0.03459300100803375
			],
			"type":"VEC3"
		},
		{
			"bufferView":1,
			"componentType":5126,
			"count":70971,
			"type":"VEC3"
		},
		{
			"bufferView":2,
			"componentType":5126,
			"count":70971,
			"type":"VEC2"
		},
		{
			"bufferView":3,
			"componentType":5125,
			"count":315717,
			"type":"SCALAR"
		},
		{
			"bufferView":4,
			"componentType":5126,
			"count":65609,
			"max":[
				1.4562820196151733,
				2.13401198387146,
				0.5664039850234985
			],
			"min":[
				-1.7982289791107178,
				-0.45712000131607056,
				0.03385699912905693
			],
			"type":"VEC3"
		},
		{
			"bufferView":5,
			"componentType":5126,
			"count":65609,
			"type":"VEC3"
		},
		{
			"bufferView":6,
			"componentType":5126,
			"count":65609,
			"type":"VEC2"
		},
		{
			"bufferView":7,
			"componentType":5125,
			"count":328119,
			"type":"SCALAR"
		},
		{
			"bufferView":8,
			"componentType":5126,
			"count":70177,
			"max":[
				1.8174309730529785,
				2.1642351150512695,
				0.521809995174408
			],
			"min":[
				-1.780819058418274,
				-1.0451350212097168,
				0.024744000285863876
			],
			"type":"VEC3"
		},
		{
			"bufferView":9,
			"componentType":5126,
			"count":70177,
			"type":"VEC3"
		},
		{
			"bufferView":10,
			"componentType":5126,
			"count":70177,
			"type":"VEC2"
		},
		{
			"bufferView":11,
			"componentType":5125,
			"count":318882,
			"type":"SCALAR"
		},
		{
			"bufferView":12,
			"componentType":5126,
			"count":65647,
			"max":[
				1.8116610050201416,
				1.3745499849319458,
				0.4663110077381134
			],
			"min":[
				-1.5777390003204346,
				-1.432724952697754,
				0.032117001712322235
			],
			"type":"VEC3"
		},
		{
			"bufferView":13,
			"componentType":5126,
			"count":65647,
			"type":"VEC3"
		},
		{
			"bufferView":14,
			"componentType":5126,
			"count":65647,
			"type":"VEC2"
		},
		{
			"bufferView":15,
			"componentType":5125,
			"count":302085,
			"type":"SCALAR"
		},
		{
			"bufferView":16,
			"componentType":5126,
			"count":68718,
			"max":[
				1.904440999031067,
				0.7920809984207153,
				0.5947549939155579
			],
			"min":[
				-1.2944890260696411,
				-1.7055219411849976,
				0.032117001712322235
			],
			"type":"VEC3"
		},
		{
			"bufferView":17,
			"componentType":5126,
			"count":68718,
			"type":"VEC3"
		},
		{
			"bufferView":18,
			"componentType":5126,
			"count":68718,
			"type":"VEC2"
		},
		{
			"bufferView":19,
			"componentType":5125,
			"count":311550,
			"type":"SCALAR"
		},
		{
			"bufferView":20,
			"componentType":5126,
			"count":4979,
			"max":[
				-0.4655520021915436,
				0.49680599570274353,
				0.5130460262298584
			],
			"min":[
				-0.6768090128898621,
				0.18575799465179443,
				0.2690660059452057
			],
			"type":"VEC3"
		},
		{
			"bufferView":21,
			"componentType":5126,
			"count":4979,
			"type":"VEC3"
		},
		{
			"bufferView":22,
			"componentType":5126,
			"count":4979,
			"type":"VEC2"
		},
		{
			"bufferView":23,
			"componentType":5123,
			"count":11136,
			"type":"SCALAR"
		}
	],
	"bufferViews":[
		{
			"buffer":0,
			"byteLength":851652,
			"byteOffset":0,
			"target":34962
		},
		{
			"buffer":0,
			"byteLength":851652,
			"byteOffset":851652,
			"target":34962
		},
		{
			"buffer":0,
			"byteLength":567768,
			"byteOffset":1703304,
			"target":34962
		},
		{
			"buffer":0,
			"byteLength":1262868,
			"byteOffset":2271072,
			"target":34963
		},
		{
			"buffer":0,
			"byteLength":787308,
			"byteOffset":3533940,
			"target":34962
		},
		{
			"buffer":0,
			"byteLength":787308,
			"byteOffset":4321248,
			"target":34962
		},
		{
			"buffer":0,
			"byteLength":524872,
			"byteOffset":5108556,
			"target":34962
		},
		{
			"buffer":0,
			"byteLength":1312476,
			"byteOffset":5633428,
			"target":34963
		},
		{
			"buffer":0,
			"byteLength":842124,
			"byteOffset":6945904,
			"target":34962
		},
		{
			"buffer":0,
			"byteLength":842124,
			"byteOffset":7788028,
			"target":34962
		},
		{
			"buffer":0,
			"byteLength":561416,
			"byteOffset":8630152,
			"target":34962
		},
		{
			"buffer":0,
			"byteLength":1275528,
			"byteOffset":9191568,
			"target":34963
		},
		{
			"buffer":0,
			"byteLength":787764,
			"byteOffset":10467096,
			"target":34962
		},
		{
			"buffer":0,
			"byteLength":787764,
			"byteOffset":11254860,
			"target":34962
		},
		{
			"buffer":0,
			"byteLength":525176,
			"byteOffset":12042624,
			"target":34962
		},
		{
			"buffer":0,
			"byteLength":1208340,
			"byteOffset":12567800,
			"target":34963
		},
		{
			"buffer":0,
			"byteLength":824616,
			"byteOffset":13776140,
			"target":34962
		},
		{
			"buffer":0,
			"byteLength":824616,
			"byteOffset":14600756,
			"target":34962
		},
		{
			"buffer":0,
			"byteLength":549744,
			"byteOffset":15425372,
			"target":34962
		},
		{
			"buffer":0,
			"byteLength":1246200,
			"byteOffset":15975116,
			"target":34963
		},
		{
			"buffer":0,
			"byteLength":59748,
			"byteOffset":17221316,
			"target":34962
		},
		{
			"buffer":0,
			"byteLength":59748,
			"byteOffset":17281064,
			"target":34962
		},
		{
			"buffer":0,
			"byteLength":39832,
			"byteOffset":17340812,
			"target":34962
		},
		{
			"buffer":0,
			"byteLength":22272,
			"byteOffset":17380644,
			"target":34963
		}
	],
	"samplers":[
		{
			"magFilter":9729,
			"minFilter":9987
		}
	],
	"buffers":[
		{
			"byteLength":17402916,
			"uri":"scene.bin"
		}
	]
}
