{
	"asset":{
		"generator":"Khronos glTF Blender I/O v4.5.48",
		"version":"2.0"
	},
	"scene":0,
	"scenes":[
		{
			"name":"Scene",
			"nodes":[
				1
			]
		}
	],
	"nodes":[
		{
			"mesh":0,
			"name":"geometry_0"
		},
		{
			"children":[
				0
			],
			"name":"world"
		}
	],
	"materials":[
		{
			"name":"Material_0.001",
			"pbrMetallicRoughness":{
				"baseColorTexture":{
					"index":0
				},
				"roughnessFactor":0.9036020040512085
			}
		}
	],
	"meshes":[
		{
			"name":"geometry_0.001",
			"primitives":[
				{
					"attributes":{
						"POSITION":0,
						"NORMAL":1,
						"TEXCOORD_0":2
					},
					"indices":3,
					"material":0
				}
			]
		}
	],
	"textures":[
		{
			"sampler":0,
			"source":0
		}
	],
	"images":[
		{
			"mimeType":"image/png",
			"name":"Image_0",
			"uri":"Image_0.png"
		}
	],
	"accessors":[
		{
			"bufferView":0,
			"componentType":5126,
			"count":238495,
			"max":[
				0.936261773109436,
				0.9936060905456543,
				0.6835830211639404
			],
			"min":[
				-0.9502789974212646,
				-0.9995064735412598,
				-0.6850622892379761
			],
			"type":"VEC3"
		},
		{
			"bufferView":1,
			"componentType":5126,
			"count":238495,
			"type":"VEC3"
		},
		{
			"bufferView":2,
			"componentType":5126,
			"count":238495,
			"type":"VEC2"
		},
		{
			"bufferView":3,
			"componentType":5125,
			"count":239964,
			"type":"SCALAR"
		}
	],
	"bufferViews":[
		{
			"buffer":0,
			"byteLength":2861940,
			"byteOffset":0,
			"target":34962
		},
		{
			"buffer":0,
			"byteLength":2861940,
			"byteOffset":2861940,
			"target":34962
		},
		{
			"buffer":0,
			"byteLength":1907960,
			"byteOffset":5723880,
			"target":34962
		},
		{
			"buffer":0,
			"byteLength":959856,
			"byteOffset":7631840,
			"target":34963
		}
	],
	"samplers":[
		{
			"magFilter":9729,
			"minFilter":9987
		}
	],
	"buffers":[
		{
			"byteLength":8591696,
			"uri":"elecmon.bin"
		}
	]
}
