{
  "accessors": [
    {
      "bufferView": 2,
      "componentType": 5126,
      "count": 65532,
      "max": [
        29.002822875976563,
        31.669841766357422,
        16.445980072021484
      ],
      "min": [
        -32.59748840332031,
        -28.019207000732422,
        -18.68276596069336
      ],
      "type": "VEC3"
    },
    {
      "bufferView": 2,
      "byteOffset": 786384,
      "componentType": 5126,
      "count": 65532,
      "max": [
        0.9999939203262329,
        0.9999632835388184,
        1.0
      ],
      "min": [
        -0.9999545812606812,
        -0.9999922513961792,
        -0.9999346733093262
      ],
      "type": "VEC3"
    },
    {
      "bufferView": 1,
      "componentType": 5126,
      "count": 65532,
      "max": [
        1.9998469352722168,
        0.9984129667282104
      ],
      "min": [
        1.0001220703125,
        0.0001281691947951913
      ],
      "type": "VEC2"
    },
    {
      "bufferView": 0,
      "componentType": 5125,
      "count": 265239,
      "type": "SCALAR"
    },
    {
      "bufferView": 2,
      "byteOffset": 1572768,
      "componentType": 5126,
      "count": 65532,
      "max": [
        30.835819244384766,
        14.36120319366455,
        11.394977569580078
      ],
      "min": [
        -25.367393493652344,
        -25.029706954956055,
        -15.773818969726563
      ],
      "type": "VEC3"
    },
    {
      "bufferView": 2,
      "byteOffset": 2359152,
      "componentType": 5126,
      "count": 65532,
      "max": [
        0.9999966621398926,
        0.9999196529388428,
        0.9999910593032837
      ],
      "min": [
        -0.9999706745147705,
        -0.9999704360961914,
        -0.9999403953552246
      ],
      "type": "VEC3"
    },
    {
      "bufferView": 1,
      "byteOffset": 524256,
      "componentType": 5126,
      "count": 65532,
      "max": [
        1.9998295307159424,
        0.9935301542282104
      ],
      "min": [
        1.0001220703125,
        0.00013931526336818933
      ],
      "type": "VEC2"
    },
    {
      "bufferView": 0,
      "byteOffset": 1060956,
      "componentType": 5125,
      "count": 253302,
      "type": "SCALAR"
    },
    {
      "bufferView": 2,
      "byteOffset": 3145536,
      "componentType": 5126,
      "count": 12478,
      "max": [
        28.95464324951172,
        17.73549461364746,
        16.76886558532715
      ],
      "min": [
        -34.49849319458008,
        -23.93840789794922,
        0.15593338012695313
      ],
      "type": "VEC3"
    },
    {
      "bufferView": 2,
      "byteOffset": 3295272,
      "componentType": 5126,
      "count": 12478,
      "max": [
        0.9998477697372437,
        0.9998753070831299,
        0.9998832941055298
      ],
      "min": [
        -0.9994425773620605,
        -0.9995790719985962,
        -0.9985862374305725
      ],
      "type": "VEC3"
    },
    {
      "bufferView": 1,
      "byteOffset": 1048512,
      "componentType": 5126,
      "count": 12478,
      "max": [
        1.9998421669006348,
        0.9876707792282104
      ],
      "min": [
        1.0001220703125,
        0.00012405647430568933
      ],
      "type": "VEC2"
    },
    {
      "bufferView": 0,
      "byteOffset": 2074164,
      "componentType": 5125,
      "count": 46260,
      "type": "SCALAR"
    },
    {
      "bufferView": 2,
      "byteOffset": 3445008,
      "componentType": 5126,
      "count": 65532,
      "max": [
        30.835819244384766,
        31.669841766357422,
        14.230880737304688
      ],
      "min": [
        -36.81627655029297,
        -25.029706954956055,
        -18.46954345703125
      ],
      "type": "VEC3"
    },
    {
      "bufferView": 2,
      "byteOffset": 4231392,
      "componentType": 5126,
      "count": 65532,
      "max": [
        0.9999440908432007,
        0.9999387264251709,
        0.9999960660934448
      ],
      "min": [
        -0.9999821186065674,
        -0.9999531507492065,
        -0.999966025352478
      ],
      "type": "VEC3"
    },
    {
      "bufferView": 1,
      "byteOffset": 1148336,
      "componentType": 5126,
      "count": 65532,
      "max": [
        0.9998635053634644,
        0.9998778104782104
      ],
      "min": [
        0.0001220703125,
        0.000118513242341578
      ],
      "type": "VEC2"
    },
    {
      "bufferView": 0,
      "byteOffset": 2259204,
      "componentType": 5125,
      "count": 234717,
      "type": "SCALAR"
    },
    {
      "bufferView": 2,
      "byteOffset": 5017776,
      "componentType": 5126,
      "count": 65532,
      "max": [
        16.88180923461914,
        26.584924697875977,
        5.818241119384766
      ],
      "min": [
        -36.81627655029297,
        -28.019207000732422,
        -16.1519775390625
      ],
      "type": "VEC3"
    },
    {
      "bufferView": 2,
      "byteOffset": 5804160,
      "componentType": 5126,
      "count": 65532,
      "max": [
        0.9999966621398926,
        0.9999387264251709,
        0.9999984502792358
      ],
      "min": [
        -0.999964714050293,
        -0.9999077320098877,
        -0.9994539022445679
      ],
      "type": "VEC3"
    },
    {
      "bufferView": 1,
      "byteOffset": 1672592,
      "componentType": 5126,
      "count": 65532,
      "max": [
        0.9998747110366821,
        0.9998778104782104
      ],
      "min": [
        0.0001220703125,
        0.0001318646827712655
      ],
      "type": "VEC2"
    },
    {
      "bufferView": 0,
      "byteOffset": 3198072,
      "componentType": 5125,
      "count": 210408,
      "type": "SCALAR"
    },
    {
      "bufferView": 2,
      "byteOffset": 6590544,
      "componentType": 5126,
      "count": 65532,
      "max": [
        28.95464324951172,
        28.632843017578125,
        16.7827205657959
      ],
      "min": [
        -35.70391845703125,
        -21.779422760009766,
        -15.402179718017578
      ],
      "type": "VEC3"
    },
    {
      "bufferView": 2,
      "byteOffset": 7376928,
      "componentType": 5126,
      "count": 65532,
      "max": [
        0.999997615814209,
        0.999472975730896,
        1.0
      ],
      "min": [
        -0.9999512434005737,
        -0.9999760389328003,
        -0.9998998641967773
      ],
      "type": "VEC3"
    },
    {
      "bufferView": 1,
      "byteOffset": 2196848,
      "componentType": 5126,
      "count": 65532,
      "max": [
        0.9998739361763,
        0.9998778104782104
      ],
      "min": [
        0.0001220703125,
        0.00013359321746975183
      ],
      "type": "VEC2"
    },
    {
      "bufferView": 0,
      "byteOffset": 4039704,
      "componentType": 5125,
      "count": 222003,
      "type": "SCALAR"
    },
    {
      "bufferView": 2,
      "byteOffset": 8163312,
      "componentType": 5126,
      "count": 43365,
      "max": [
        29.752105712890625,
        31.41568946838379,
        16.445980072021484
      ],
      "min": [
        -36.81627655029297,
        -27.459470748901367,
        -18.68276596069336
      ],
      "type": "VEC3"
    },
    {
      "bufferView": 2,
      "byteOffset": 8683692,
      "componentType": 5126,
      "count": 43365,
      "max": [
        0.9998629093170166,
        0.9996616840362549,
        0.9999932050704956
      ],
      "min": [
        -0.9996942281723022,
        -0.999893069267273,
        -0.9998419284820557
      ],
      "type": "VEC3"
    },
    {
      "bufferView": 1,
      "byteOffset": 2721104,
      "componentType": 5126,
      "count": 43365,
      "max": [
        0.9998690485954285,
        0.9998778104782104
      ],
      "min": [
        0.0001220703125,
        0.00012703670654445887
      ],
      "type": "VEC2"
    },
    {
      "bufferView": 0,
      "byteOffset": 4927716,
      "componentType": 5125,
      "count": 119451,
      "type": "SCALAR"
    }
  ],
  "asset": {
    "extras": {
      "author": "matousekfoto (https://sketchfab.com/matousekfoto)",
      "license": "CC-BY-4.0 (http://creativecommons.org/licenses/by/4.0/)",
      "source": "https://sketchfab.com/3d-models/cracked-engine-84ccb831da3e43cc99d62a112d5897cb",
      "title": "Cracked engine"
    },
    "generator": "Sketchfab-12.67.0",
    "version": "2.0"
  },
  "bufferViews": [
    {
      "buffer": 0,
      "byteLength": 5405520,
      "name": "floatBufferViews",
      "target": 34963
    },
    {
      "buffer": 0,
      "byteLength": 3068024,
      "byteOffset": 5405520,
      "byteStride": 8,
      "name": "floatBufferViews",
      "target": 34962
    },
    {
      "buffer": 0,
      "byteLength": 9204072,
      "byteOffset": 8473544,
      "byteStride": 12,
      "name": "floatBufferViews",
      "target": 34962
    }
  ],
  "buffers": [
    {
      "byteLength": 17677616,
      "uri": "scene.bin"
    }
  ],
  "extensionsUsed": [
    "KHR_materials_unlit"
  ],
  "images": [
    {
      "uri": "textures/cracked-engine_u2_v1_baseColor.jpeg"
    },
    {
      "uri": "textures/cracked-engine_u1_v1_baseColor.jpeg"
    }
  ],
  "materials": [
    {
      "doubleSided": true,
      "extensions": {
        "KHR_materials_unlit": {}
      },
      "name": "cracked-engine_u2_v1",
      "pbrMetallicRoughness": {
        "baseColorTexture": {
          "index": 0
        },
        "metallicFactor": 0.0
      }
    },
    {
      "doubleSided": true,
      "extensions": {
        "KHR_materials_unlit": {}
      },
      "name": "cracked-engine_u1_v1",
      "pbrMetallicRoughness": {
        "baseColorTexture": {
          "index": 1
        },
        "metallicFactor": 0.0
      }
    }
  ],
  "meshes": [
    {
      "name": "cracked-engine_cracked-engine_u2_v1_0",
      "primitives": [
        {
          "attributes": {
            "NORMAL": 1,
            "POSITION": 0,
            "TEXCOORD_0": 2
          },
          "indices": 3,
          "material": 0,
          "mode": 4
        }
      ]
    },
    {
      "name": "cracked-engine_cracked-engine_u2_v1_0",
      "primitives": [
        {
          "attributes": {
            "NORMAL": 5,
            "POSITION": 4,
            "TEXCOORD_0": 6
          },
          "indices": 7,
          "material": 0,
          "mode": 4
        }
      ]
    },
    {
      "name": "cracked-engine_cracked-engine_u2_v1_0",
      "primitives": [
        {
          "attributes": {
            "NORMAL": 9,
            "POSITION": 8,
            "TEXCOORD_0": 10
          },
          "indices": 11,
          "material": 0,
          "mode": 4
        }
      ]
    },
    {
      "name": "cracked-engine_cracked-engine_u1_v1_0",
      "primitives": [
        {
          "attributes": {
            "NORMAL": 13,
            "POSITION": 12,
            "TEXCOORD_0": 14
          },
          "indices": 15,
          "material": 1,
          "mode": 4
        }
      ]
    },
    {
      "name": "cracked-engine_cracked-engine_u1_v1_0",
      "primitives": [
        {
          "attributes": {
            "NORMAL": 17,
            "POSITION": 16,
            "TEXCOORD_0": 18
          },
          "indices": 19,
          "material": 1,
          "mode": 4
        }
      ]
    },
    {
      "name": "cracked-engine_cracked-engine_u1_v1_0",
      "primitives": [
        {
          "attributes": {
            "NORMAL": 21,
            "POSITION": 20,
            "TEXCOORD_0": 22
          },
          "indices": 23,
          "material": 1,
          "mode": 4
        }
      ]
    },
    {
      "name": "cracked-engine_cracked-engine_u1_v1_0",
      "primitives": [
        {
          "attributes": {
            "NORMAL": 25,
            "POSITION": 24,
            "TEXCOORD_0": 26
          },
          "indices": 27,
          "material": 1,
          "mode": 4
        }
      ]
    }
  ],
  "nodes": [
    {
      "children": [
        1
      ],
      "matrix": [
        0.02676043084452928,
        9.033750221687193e-05,
        0.014217765465998511,
        0.0,
        0.014205355056105873,
        -0.0014502052085478775,
        -0.026727859614490868,
        0.0,
        0.0006007368883619857,
        0.030268175131308084,
        -0.0013230158918369139,
        0.0,
        -1.169708251953125,
        0.13658635318279294,
        -1.2507206201553345,
        1.0
      ],
      "name": "Sketchfab_model"
    },
    {
      "children": [
        2
      ],
      "matrix": [
        0.009999999776482582,
        0.0,
        0.0,
        0.0,
        0.0,
        0.0,
        0.009999999776482582,
        0.0,
        0.0,
        -0.009999999776482582,
        0.0,
        0.0,
        0.0,
        0.0,
        0.0,
        1.0
      ],
      "name": "cracked-engine.fbx"
    },
    {
      "children": [
        3
      ],
      "name": "RootNode"
    },
    {
      "children": [
        4,
        5,
        6,
        7,
        8,
        9,
        10
      ],
      "matrix": [
        7.549789959870878e-06,
        1.1102230246251565e-14,
        99.99999999999972,
        0.0,
        99.99999999999962,
        -4.371139006309477e-06,
        -7.549789954319763e-06,
        0.0,
        4.371139006309477e-06,
        99.99999999999991,
        -3.552713678800501e-13,
        0.0,
        0.0,
        0.0,
        0.0,
        1.0
      ],
      "name": "cracked-engine"
    },
    {
      "mesh": 0,
      "name": "cracked-engine_cracked-engine_u2_v1_0"
    },
    {
      "mesh": 1,
      "name": "cracked-engine_cracked-engine_u2_v1_0"
    },
    {
      "mesh": 2,
      "name": "cracked-engine_cracked-engine_u2_v1_0"
    },
    {
      "mesh": 3,
      "name": "cracked-engine_cracked-engine_u1_v1_0"
    },
    {
      "mesh": 4,
      "name": "cracked-engine_cracked-engine_u1_v1_0"
    },
    {
      "mesh": 5,
      "name": "cracked-engine_cracked-engine_u1_v1_0"
    },
    {
      "mesh": 6,
      "name": "cracked-engine_cracked-engine_u1_v1_0"
    }
  ],
  "samplers": [
    {
      "magFilter": 9729,
      "minFilter": 9987,
      "wrapS": 10497,
      "wrapT": 10497
    }
  ],
  "scene": 0,
  "scenes": [
    {
      "name": "Sketchfab_Scene",
      "nodes": [
        0
      ]
    }
  ],
  "textures": [
    {
      "sampler": 0,
      "source": 0
    },
    {
      "sampler": 0,
      "source": 1
    }
  ]
}
