{
  "accessors": [
    {
      "bufferView": 2,
      "componentType": 5126,
      "count": 16156,
      "max": [
        46.492801666259766,
        49.591400146484375,
        108.03309631347656
      ],
      "min": [
        -46.492801666259766,
        -33.12009811401367,
        45.59410095214844
      ],
      "type": "VEC3"
    },
    {
      "bufferView": 2,
      "byteOffset": 193872,
      "componentType": 5126,
      "count": 16156,
      "max": [
        0.9999422430992126,
        0.9997239708900452,
        0.9999982118606567
      ],
      "min": [
        -0.9999422430992126,
        -0.9999971389770508,
        -0.9999937415122986
      ],
      "type": "VEC3"
    },
    {
      "bufferView": 3,
      "componentType": 5126,
      "count": 16156,
      "max": [
        0.9999169707298279,
        0.9988131523132324,
        0.609687328338623,
        1.0
      ],
      "min": [
        -0.9999169707298279,
        -0.9999999403953552,
        -0.9966250658035278,
        -1.0
      ],
      "type": "VEC4"
    },
    {
      "bufferView": 1,
      "componentType": 5126,
      "count": 16156,
      "max": [
        0.9918000102043152,
        0.9961000084877014
      ],
      "min": [
        0.0038999998942017555,
        0.0038999998942017555
      ],
      "type": "VEC2"
    },
    {
      "bufferView": 0,
      "componentType": 5125,
      "count": 88896,
      "type": "SCALAR"
    },
    {
      "bufferView": 2,
      "byteOffset": 387744,
      "componentType": 5126,
      "count": 1870,
      "max": [
        30.0,
        46.0609016418457,
        56.3922004699707
      ],
      "min": [
        -30.0,
        -30.0,
        -0.0017999999690800905
      ],
      "type": "VEC3"
    },
    {
      "bufferView": 2,
      "byteOffset": 410184,
      "componentType": 5126,
      "count": 1870,
      "max": [
        1.0,
        1.0,
        1.0
      ],
      "min": [
        -1.0,
        -0.9999826550483704,
        -1.0
      ],
      "type": "VEC3"
    },
    {
      "bufferView": 3,
      "byteOffset": 258496,
      "componentType": 5126,
      "count": 1870,
      "max": [
        1.0,
        0.9991817474365234,
        0.9999316334724426,
        1.0
      ],
      "min": [
        -1.0,
        -0.9999968409538269,
        -1.0,
        -1.0
      ],
      "type": "VEC4"
    },
    {
      "bufferView": 1,
      "byteOffset": 129248,
      "componentType": 5126,
      "count": 1870,
      "max": [
        0.9961000084877014,
        0.9908999800682068
      ],
      "min": [
        0.0038999998942017555,
        0.0038999998942017555
      ],
      "type": "VEC2"
    },
    {
      "bufferView": 0,
      "byteOffset": 355584,
      "componentType": 5125,
      "count": 6102,
      "type": "SCALAR"
    }
  ],
  "asset": {
    "extras": {
      "author": "Asier (https://sketchfab.com/asvamu)",
      "license": "CC-BY-4.0 (http://creativecommons.org/licenses/by/4.0/)",
      "source": "https://sketchfab.com/3d-models/hairdressing-chair-58e888e4e6a24cf090119e7ab829112b",
      "title": "hairdressing chair"
    },
    "generator": "Sketchfab-16.16.0",
    "version": "2.0"
  },
  "bufferViews": [
    {
      "buffer": 0,
      "byteLength": 379992,
      "name": "floatBufferViews",
      "target": 34963
    },
    {
      "buffer": 0,
      "byteLength": 144208,
      "byteOffset": 379992,
      "byteStride": 8,
      "name": "floatBufferViews",
      "target": 34962
    },
    {
      "buffer": 0,
      "byteLength": 432624,
      "byteOffset": 524200,
      "byteStride": 12,
      "name": "floatBufferViews",
      "target": 34962
    },
    {
      "buffer": 0,
      "byteLength": 288416,
      "byteOffset": 956824,
      "byteStride": 16,
      "name": "floatBufferViews",
      "target": 34962
    }
  ],
  "buffers": [
    {
      "byteLength": 1245240,
      "uri": "scene.bin"
    }
  ],
  "images": [
    {
      "uri": "textures/Material__27_baseColor.png"
    },
    {
      "uri": "textures/Material__27_metallicRoughness.png"
    },
    {
      "uri": "textures/Material__27_normal.png"
    },
    {
      "uri": "textures/Material__28_baseColor.png"
    },
    {
      "uri": "textures/Material__28_metallicRoughness.png"
    },
    {
      "uri": "textures/Material__28_normal.png"
    }
  ],
  "materials": [
    {
      "doubleSided": true,
      "name": "Material__27",
      "normalTexture": {
        "index": 2
      },
      "pbrMetallicRoughness": {
        "baseColorTexture": {
          "index": 0
        },
        "metallicRoughnessTexture": {
          "index": 1
        }
      }
    },
    {
      "doubleSided": true,
      "name": "Material__28",
      "normalTexture": {
        "index": 5
      },
      "pbrMetallicRoughness": {
        "baseColorFactor": [
          0.47339108936580887,
          0.47339108936580887,
          0.47339108936580887,
          1.0
        ],
        "baseColorTexture": {
          "index": 3
        },
        "metallicRoughnessTexture": {
          "index": 4
        }
      }
    }
  ],
  "meshes": [
    {
      "name": "Object_0",
      "primitives": [
        {
          "attributes": {
            "NORMAL": 1,
            "POSITION": 0,
            "TANGENT": 2,
            "TEXCOORD_0": 3
          },
          "indices": 4,
          "material": 1,
          "mode": 4
        }
      ]
    },
    {
      "name": "Object_1",
      "primitives": [
        {
          "attributes": {
            "NORMAL": 6,
            "POSITION": 5,
            "TANGENT": 7,
            "TEXCOORD_0": 8
          },
          "indices": 9,
          "material": 0,
          "mode": 4
        }
      ]
    }
  ],
  "nodes": [
    {
      "children": [
        1
      ],
      "matrix": [
        0.009999999776482582,
        0.0,
        0.0,
        0.0,
        0.0,
        2.2204459996194763e-18,
        -0.009999999776482582,
        0.0,
        0.0,
        0.009999999776482582,
        2.2204459996194763e-18,
        0.0,
        0.0,
        0.0,
        0.0,
        1.0
      ],
      "name": "Sketchfab_model"
    },
    {
      "children": [
        2,
        3
      ],
      "name": "Silla_Marmo.obj.cleaner.materialmerger.gles"
    },
    {
      "mesh": 0,
      "name": "Object_2"
    },
    {
      "mesh": 1,
      "name": "Object_3"
    }
  ],
  "samplers": [
    {
      "magFilter": 9729,
      "minFilter": 9987,
      "wrapS": 10497,
      "wrapT": 10497
    }
  ],
  "scene": 0,
  "scenes": [
    {
      "name": "Sketchfab_Scene",
      "nodes": [
        0
      ]
    }
  ],
  "textures": [
    {
      "sampler": 0,
      "source": 0
    },
    {
      "sampler": 0,
      "source": 1
    },
    {
      "sampler": 0,
      "source": 2
    },
    {
      "sampler": 0,
      "source": 3
    },
    {
      "sampler": 0,
      "source": 4
    },
    {
      "sampler": 0,
      "source": 5
    }
  ]
}
