{
	"asset":{
		"generator":"Khronos glTF Blender I/O v4.5.48",
		"version":"2.0"
	},
	"scene":0,
	"scenes":[
		{
			"name":"Scene",
			"nodes":[
				1
			]
		}
	],
	"nodes":[
		{
			"mesh":0,
			"name":"Character"
		},
		{
			"children":[
				0
			],
			"name":"world"
		}
	],
	"materials":[
		{
			"name":"Material_0.001",
			"pbrMetallicRoughness":{
				"baseColorTexture":{
					"index":0
				},
				"metallicFactor":0,
				"roughnessFactor":0.699999988079071
			}
		}
	],
	"meshes":[
		{
			"name":"Character",
			"primitives":[
				{
					"attributes":{
						"POSITION":0,
						"NORMAL":1,
						"TEXCOORD_0":2
					},
					"indices":3,
					"material":0
				}
			]
		}
	],
	"textures":[
		{
			"sampler":0,
			"source":0
		}
	],
	"images":[
		{
			"mimeType":"image/png",
			"name":"Image_0",
			"uri":"Image_0.png"
		}
	],
	"accessors":[
		{
			"bufferView":0,
			"componentType":5126,
			"count":24402,
			"max":[
				0.40825343132019043,
				1.6999999284744263,
				0.35988858342170715
			],
			"min":[
				-0.40825343132019043,
				0,
				-0.35988858342170715
			],
			"type":"VEC3"
		},
		{
			"bufferView":1,
			"componentType":5126,
			"count":24402,
			"type":"VEC3"
		},
		{
			"bufferView":2,
			"componentType":5126,
			"count":24402,
			"type":"VEC2"
		},
		{
			"bufferView":3,
			"componentType":5123,
			"count":117594,
			"type":"SCALAR"
		}
	],
	"bufferViews":[
		{
			"buffer":0,
			"byteLength":292824,
			"byteOffset":0,
			"target":34962
		},
		{
			"buffer":0,
			"byteLength":292824,
			"byteOffset":292824,
			"target":34962
		},
		{
			"buffer":0,
			"byteLength":195216,
			"byteOffset":585648,
			"target":34962
		},
		{
			"buffer":0,
			"byteLength":235188,
			"byteOffset":780864,
			"target":34963
		}
	],
	"samplers":[
		{
			"magFilter":9729,
			"minFilter":9987
		}
	],
	"buffers":[
		{
			"byteLength":1016052,
			"uri":"scene.bin"
		}
	]
}
