{
	"asset":{
		"generator":"Khronos glTF Blender I/O v4.5.48",
		"version":"2.0"
	},
	"scene":0,
	"scenes":[
		{
			"name":"Scene",
			"nodes":[
				1
			]
		}
	],
	"nodes":[
		{
			"mesh":0,
			"name":"geometry_0"
		},
		{
			"children":[
				0
			],
			"name":"world"
		}
	],
	"materials":[
		{
			"name":"Material_0",
			"pbrMetallicRoughness":{
				"baseColorTexture":{
					"index":0
				},
				"roughnessFactor":0.9036020040512085
			}
		}
	],
	"meshes":[
		{
			"name":"geometry_0",
			"primitives":[
				{
					"attributes":{
						"POSITION":0,
						"NORMAL":1,
						"TEXCOORD_0":2
					},
					"indices":3,
					"material":0
				}
			]
		}
	],
	"textures":[
		{
			"sampler":0,
			"source":0
		}
	],
	"images":[
		{
			"mimeType":"image/png",
			"name":"Image_0",
			"uri":"Image_0.png"
		}
	],
	"accessors":[
		{
			"bufferView":0,
			"componentType":5126,
			"count":239146,
			"max":[
				0.6775609850883484,
				0.9923083782196045,
				0.5581797957420349
			],
			"min":[
				-0.6628089547157288,
				-1.0001860857009888,
				-0.5789638161659241
			],
			"type":"VEC3"
		},
		{
			"bufferView":1,
			"componentType":5126,
			"count":239146,
			"type":"VEC3"
		},
		{
			"bufferView":2,
			"componentType":5126,
			"count":239146,
			"type":"VEC2"
		},
		{
			"bufferView":3,
			"componentType":5125,
			"count":239910,
			"type":"SCALAR"
		}
	],
	"bufferViews":[
		{
			"buffer":0,
			"byteLength":2869752,
			"byteOffset":0,
			"target":34962
		},
		{
			"buffer":0,
			"byteLength":2869752,
			"byteOffset":2869752,
			"target":34962
		},
		{
			"buffer":0,
			"byteLength":1913168,
			"byteOffset":5739504,
			"target":34962
		},
		{
			"buffer":0,
			"byteLength":959640,
			"byteOffset":7652672,
			"target":34963
		}
	],
	"samplers":[
		{
			"magFilter":9729,
			"minFilter":9987
		}
	],
	"buffers":[
		{
			"byteLength":8612312,
			"uri":"shtuc.bin"
		}
	]
}
