{
	"asset":{
		"generator":"Khronos glTF Blender I/O v4.5.48",
		"version":"2.0"
	},
	"scene":0,
	"scenes":[
		{
			"name":"Scene",
			"nodes":[
				1
			]
		}
	],
	"nodes":[
		{
			"mesh":0,
			"name":"geometry_0"
		},
		{
			"children":[
				0
			],
			"name":"world"
		}
	],
	"materials":[
		{
			"name":"Material_0.001",
			"pbrMetallicRoughness":{
				"baseColorTexture":{
					"index":0
				},
				"roughnessFactor":0.9036020040512085
			}
		}
	],
	"meshes":[
		{
			"name":"geometry_0.001",
			"primitives":[
				{
					"attributes":{
						"POSITION":0,
						"NORMAL":1,
						"TEXCOORD_0":2
					},
					"indices":3,
					"material":0
				}
			]
		}
	],
	"textures":[
		{
			"sampler":0,
			"source":0
		}
	],
	"images":[
		{
			"mimeType":"image/png",
			"name":"Image_0",
			"uri":"Image_0.png"
		}
	],
	"accessors":[
		{
			"bufferView":0,
			"componentType":5126,
			"count":234521,
			"max":[
				0.8383405208587646,
				0.9950619339942932,
				0.8113964796066284
			],
			"min":[
				-0.8359378576278687,
				-0.9999706149101257,
				-0.7972455024719238
			],
			"type":"VEC3"
		},
		{
			"bufferView":1,
			"componentType":5126,
			"count":234521,
			"type":"VEC3"
		},
		{
			"bufferView":2,
			"componentType":5126,
			"count":234521,
			"type":"VEC2"
		},
		{
			"bufferView":3,
			"componentType":5125,
			"count":239982,
			"type":"SCALAR"
		}
	],
	"bufferViews":[
		{
			"buffer":0,
			"byteLength":2814252,
			"byteOffset":0,
			"target":34962
		},
		{
			"buffer":0,
			"byteLength":2814252,
			"byteOffset":2814252,
			"target":34962
		},
		{
			"buffer":0,
			"byteLength":1876168,
			"byteOffset":5628504,
			"target":34962
		},
		{
			"buffer":0,
			"byteLength":959928,
			"byteOffset":7504672,
			"target":34963
		}
	],
	"samplers":[
		{
			"magFilter":9729,
			"minFilter":9987
		}
	],
	"buffers":[
		{
			"byteLength":8464600,
			"uri":"energ.bin"
		}
	]
}
