{
	"asset":{
		"generator":"Khronos glTF Blender I/O v4.5.48",
		"version":"2.0"
	},
	"scene":0,
	"scenes":[
		{
			"name":"Scene",
			"nodes":[
				1
			]
		}
	],
	"nodes":[
		{
			"mesh":0,
			"name":"geometry_0"
		},
		{
			"children":[
				0
			],
			"name":"world"
		}
	],
	"materials":[
		{
			"name":"Material_0",
			"pbrMetallicRoughness":{
				"baseColorTexture":{
					"index":0
				},
				"roughnessFactor":0.9036020040512085
			}
		}
	],
	"meshes":[
		{
			"name":"geometry_0",
			"primitives":[
				{
					"attributes":{
						"POSITION":0,
						"NORMAL":1,
						"TEXCOORD_0":2
					},
					"indices":3,
					"material":0
				}
			]
		}
	],
	"textures":[
		{
			"sampler":0,
			"source":0
		}
	],
	"images":[
		{
			"mimeType":"image/png",
			"name":"Image_0",
			"uri":"Image_0.png"
		}
	],
	"accessors":[
		{
			"bufferView":0,
			"componentType":5126,
			"count":239530,
			"max":[
				0.7254737615585327,
				0.9920639991760254,
				0.5089811682701111
			],
			"min":[
				-0.7320675849914551,
				-1.000002384185791,
				-0.9389542937278748
			],
			"type":"VEC3"
		},
		{
			"bufferView":1,
			"componentType":5126,
			"count":239530,
			"type":"VEC3"
		},
		{
			"bufferView":2,
			"componentType":5126,
			"count":239530,
			"type":"VEC2"
		},
		{
			"bufferView":3,
			"componentType":5125,
			"count":240000,
			"type":"SCALAR"
		}
	],
	"bufferViews":[
		{
			"buffer":0,
			"byteLength":2874360,
			"byteOffset":0,
			"target":34962
		},
		{
			"buffer":0,
			"byteLength":2874360,
			"byteOffset":2874360,
			"target":34962
		},
		{
			"buffer":0,
			"byteLength":1916240,
			"byteOffset":5748720,
			"target":34962
		},
		{
			"buffer":0,
			"byteLength":960000,
			"byteOffset":7664960,
			"target":34963
		}
	],
	"samplers":[
		{
			"magFilter":9729,
			"minFilter":9987
		}
	],
	"buffers":[
		{
			"byteLength":8624960,
			"uri":"svarc.bin"
		}
	]
}
