{
  "accessors": [
    {
      "bufferView": 2,
      "componentType": 5126,
      "count": 65532,
      "max": [
        62.483272552490234,
        554.2871704101563,
        323.3783874511719
      ],
      "min": [
        -77.92477416992188,
        350.2644348144531,
        182.4053955078125
      ],
      "type": "VEC3"
    },
    {
      "bufferView": 2,
      "byteOffset": 786384,
      "componentType": 5126,
      "count": 65532,
      "max": [
        0.9999873638153076,
        0.9999995827674866,
        0.9999972581863403
      ],
      "min": [
        -0.9999956488609314,
        -0.9999922513961792,
        -0.9999871850013733
      ],
      "type": "VEC3"
    },
    {
      "bufferView": 1,
      "componentType": 5126,
      "count": 65532,
      "max": [
        0.0,
        0.0
      ],
      "min": [
        0.0,
        0.0
      ],
      "type": "VEC2"
    },
    {
      "bufferView": 0,
      "componentType": 5125,
      "count": 373008,
      "type": "SCALAR"
    },
    {
      "bufferView": 2,
      "byteOffset": 1572768,
      "componentType": 5126,
      "count": 35938,
      "max": [
        62.3099479675293,
        554.3350830078125,
        323.24481201171875
      ],
      "min": [
        -79.75706481933594,
        350.27349853515625,
        182.45742797851563
      ],
      "type": "VEC3"
    },
    {
      "bufferView": 2,
      "byteOffset": 2004024,
      "componentType": 5126,
      "count": 35938,
      "max": [
        0.9999890923500061,
        0.9999327063560486,
        0.9999952912330627
      ],
      "min": [
        -0.9999992847442627,
        -0.999848484992981,
        -0.9999858736991882
      ],
      "type": "VEC3"
    },
    {
      "bufferView": 1,
      "byteOffset": 524256,
      "componentType": 5126,
      "count": 35938,
      "max": [
        0.0,
        0.0
      ],
      "min": [
        0.0,
        0.0
      ],
      "type": "VEC2"
    },
    {
      "bufferView": 0,
      "byteOffset": 1492032,
      "componentType": 5125,
      "count": 186078,
      "type": "SCALAR"
    },
    {
      "bufferView": 2,
      "byteOffset": 2435280,
      "componentType": 5126,
      "count": 9827,
      "max": [
        62.76998519897461,
        543.78369140625,
        274.9720153808594
      ],
      "min": [
        -82.589599609375,
        350.2644348144531,
        181.5887908935547
      ],
      "type": "VEC3"
    },
    {
      "bufferView": 2,
      "byteOffset": 2553204,
      "componentType": 5126,
      "count": 9827,
      "max": [
        0.9999810457229614,
        0.999513566493988,
        0.9996880888938904
      ],
      "min": [
        -0.9995892643928528,
        -0.9999995827674866,
        -0.9997409582138062
      ],
      "type": "VEC3"
    },
    {
      "bufferView": 1,
      "byteOffset": 811760,
      "componentType": 5126,
      "count": 9827,
      "max": [
        0.0,
        0.0
      ],
      "min": [
        0.0,
        0.0
      ],
      "type": "VEC2"
    },
    {
      "bufferView": 0,
      "byteOffset": 2236344,
      "componentType": 5125,
      "count": 57036,
      "type": "SCALAR"
    },
    {
      "bufferView": 2,
      "byteOffset": 2671128,
      "componentType": 5126,
      "count": 1137,
      "max": [
        21.05854034423828,
        437.2113037109375,
        247.1941375732422
      ],
      "min": [
        -8.640335083007813,
        429.5267639160156,
        211.3049774169922
      ],
      "type": "VEC3"
    },
    {
      "bufferView": 2,
      "byteOffset": 2684772,
      "componentType": 5126,
      "count": 1137,
      "max": [
        0.9996429681777954,
        0.9669232368469238,
        0.9807093143463135
      ],
      "min": [
        -0.9999815821647644,
        -0.9634692668914795,
        -0.939561665058136
      ],
      "type": "VEC3"
    },
    {
      "bufferView": 1,
      "byteOffset": 890376,
      "componentType": 5126,
      "count": 1137,
      "max": [
        0.0,
        0.0
      ],
      "min": [
        0.0,
        0.0
      ],
      "type": "VEC2"
    },
    {
      "bufferView": 0,
      "byteOffset": 2464488,
      "componentType": 5125,
      "count": 5559,
      "type": "SCALAR"
    },
    {
      "bufferView": 2,
      "byteOffset": 2698416,
      "componentType": 5126,
      "count": 65532,
      "max": [
        21.451541900634766,
        475.01666259765625,
        278.9732666015625
      ],
      "min": [
        -25.173175811767578,
        358.9975280761719,
        202.71932983398438
      ],
      "type": "VEC3"
    },
    {
      "bufferView": 2,
      "byteOffset": 3484800,
      "componentType": 5126,
      "count": 65532,
      "max": [
        0.9999982118606567,
        0.9999851584434509,
        0.9999275803565979
      ],
      "min": [
        -0.9999978542327881,
        -0.9999940395355225,
        -0.9999958872795105
      ],
      "type": "VEC3"
    },
    {
      "bufferView": 1,
      "byteOffset": 899472,
      "componentType": 5126,
      "count": 65532,
      "max": [
        0.0,
        0.0
      ],
      "min": [
        0.0,
        0.0
      ],
      "type": "VEC2"
    },
    {
      "bufferView": 0,
      "byteOffset": 2486724,
      "componentType": 5125,
      "count": 350751,
      "type": "SCALAR"
    },
    {
      "bufferView": 2,
      "byteOffset": 4271184,
      "componentType": 5126,
      "count": 56309,
      "max": [
        20.932228088378906,
        474.7959899902344,
        278.8984375
      ],
      "min": [
        -33.11062240600586,
        362.1847839355469,
        197.647216796875
      ],
      "type": "VEC3"
    },
    {
      "bufferView": 2,
      "byteOffset": 4946892,
      "componentType": 5126,
      "count": 56309,
      "max": [
        0.9999931454658508,
        0.9999253749847412,
        0.9999409914016724
      ],
      "min": [
        -0.9999558329582214,
        -0.9999819993972778,
        -0.9999958872795105
      ],
      "type": "VEC3"
    },
    {
      "bufferView": 1,
      "byteOffset": 1423728,
      "componentType": 5126,
      "count": 56309,
      "max": [
        0.0,
        0.0
      ],
      "min": [
        0.0,
        0.0
      ],
      "type": "VEC2"
    },
    {
      "bufferView": 0,
      "byteOffset": 3889728,
      "componentType": 5125,
      "count": 274590,
      "type": "SCALAR"
    },
    {
      "bufferView": 2,
      "byteOffset": 5622600,
      "componentType": 5126,
      "count": 2294,
      "max": [
        21.047889709472656,
        436.9009094238281,
        244.12472534179688
      ],
      "min": [
        -24.288143157958984,
        366.0187683105469,
        211.19203186035156
      ],
      "type": "VEC3"
    },
    {
      "bufferView": 2,
      "byteOffset": 5650128,
      "componentType": 5126,
      "count": 2294,
      "max": [
        0.999884843826294,
        0.9520664215087891,
        0.9896298050880432
      ],
      "min": [
        -0.9998475313186646,
        -0.9786131978034973,
        -0.9995160698890686
      ],
      "type": "VEC3"
    },
    {
      "bufferView": 1,
      "byteOffset": 1874200,
      "componentType": 5126,
      "count": 2294,
      "max": [
        0.0,
        0.0
      ],
      "min": [
        0.0,
        0.0
      ],
      "type": "VEC2"
    },
    {
      "bufferView": 0,
      "byteOffset": 4988088,
      "componentType": 5125,
      "count": 11742,
      "type": "SCALAR"
    },
    {
      "bufferView": 2,
      "byteOffset": 5677656,
      "componentType": 5126,
      "count": 60947,
      "max": [
        27.05254364013672,
        474.81939697265625,
        273.1436462402344
      ],
      "min": [
        -38.412994384765625,
        392.6221618652344,
        196.72552490234375
      ],
      "type": "VEC3"
    },
    {
      "bufferView": 2,
      "byteOffset": 6409020,
      "componentType": 5126,
      "count": 60947,
      "max": [
        0.9999973773956299,
        0.9999839663505554,
        0.9999905824661255
      ],
      "min": [
        -0.9999800324440002,
        -0.9999706745147705,
        -0.9999942183494568
      ],
      "type": "VEC3"
    },
    {
      "bufferView": 1,
      "byteOffset": 1892552,
      "componentType": 5126,
      "count": 60947,
      "max": [
        0.0,
        0.0
      ],
      "min": [
        0.0,
        0.0
      ],
      "type": "VEC2"
    },
    {
      "bufferView": 0,
      "byteOffset": 5035056,
      "componentType": 5125,
      "count": 363648,
      "type": "SCALAR"
    },
    {
      "bufferView": 2,
      "byteOffset": 7140384,
      "componentType": 5126,
      "count": 46086,
      "max": [
        9.422490119934082,
        474.99945068359375,
        269.2185974121094
      ],
      "min": [
        -30.713346481323242,
        358.8512878417969,
        215.34384155273438
      ],
      "type": "VEC3"
    },
    {
      "bufferView": 2,
      "byteOffset": 7693416,
      "componentType": 5126,
      "count": 46086,
      "max": [
        0.9999971389770508,
        0.9999995827674866,
        0.9999764561653137
      ],
      "min": [
        -0.9999772906303406,
        -0.9999577403068542,
        -0.9999424815177917
      ],
      "type": "VEC3"
    },
    {
      "bufferView": 1,
      "byteOffset": 2380128,
      "componentType": 5126,
      "count": 46086,
      "max": [
        0.0,
        0.0
      ],
      "min": [
        0.0,
        0.0
      ],
      "type": "VEC2"
    },
    {
      "bufferView": 0,
      "byteOffset": 6489648,
      "componentType": 5125,
      "count": 275583,
      "type": "SCALAR"
    },
    {
      "bufferView": 2,
      "byteOffset": 8246448,
      "componentType": 5126,
      "count": 36,
      "max": [
        -15.504854202270508,
        434.5091857910156,
        237.9129180908203
      ],
      "min": [
        -19.09235191345215,
        413.7056884765625,
        217.5091552734375
      ],
      "type": "VEC3"
    },
    {
      "bufferView": 2,
      "byteOffset": 8246880,
      "componentType": 5126,
      "count": 36,
      "max": [
        0.9653136134147644,
        0.6414591073989868,
        0.8192784190177917
      ],
      "min": [
        0.2329171895980835,
        -0.8397324085235596,
        -0.8961065411567688
      ],
      "type": "VEC3"
    },
    {
      "bufferView": 1,
      "byteOffset": 2748816,
      "componentType": 5126,
      "count": 36,
      "max": [
        0.0,
        0.0
      ],
      "min": [
        0.0,
        0.0
      ],
      "type": "VEC2"
    },
    {
      "bufferView": 0,
      "byteOffset": 7591980,
      "componentType": 5125,
      "count": 123,
      "type": "SCALAR"
    }
  ],
  "asset": {
    "extras": {
      "author": "Pixelbeaker (https://sketchfab.com/pixelbeaker)",
      "license": "CC-BY-4.0 (http://creativecommons.org/licenses/by/4.0/)",
      "source": "https://sketchfab.com/3d-models/canine-heart-blood-volume-arterial-venous-a74ef26cf06e4679838cc2090aef9f87",
      "title": "Canine Heart Blood Volume - arterial & venous"
    },
    "generator": "Sketchfab-15.30.0",
    "version": "2.0"
  },
  "bufferViews": [
    {
      "buffer": 0,
      "byteLength": 7592472,
      "name": "floatBufferViews",
      "target": 34963
    },
    {
      "buffer": 0,
      "byteLength": 2749104,
      "byteOffset": 7592472,
      "byteStride": 8,
      "name": "floatBufferViews",
      "target": 34962
    },
    {
      "buffer": 0,
      "byteLength": 8247312,
      "byteOffset": 10341576,
      "byteStride": 12,
      "name": "floatBufferViews",
      "target": 34962
    }
  ],
  "buffers": [
    {
      "byteLength": 18588888,
      "uri": "scene.bin"
    }
  ],
  "extensionsUsed": [
    "KHR_materials_specular"
  ],
  "materials": [
    {
      "alphaMode": "BLEND",
      "extensions": {
        "KHR_materials_specular": {
          "specularColorFactor": [
            1.0,
            1.0,
            1.0
          ],
          "specularFactor": 0.18348485773259943
        }
      },
      "name": "default",
      "pbrMetallicRoughness": {
        "baseColorFactor": [
          0.9228787971265389,
          0.9228787971265389,
          0.9228787971265389,
          0.438030312278054
        ],
        "metallicFactor": 0.0,
        "roughnessFactor": 0.47106059681285506
      }
    },
    {
      "doubleSided": true,
      "extensions": {
        "KHR_materials_specular": {
          "specularColorFactor": [
            1.0,
            1.0,
            1.0
          ],
          "specularFactor": 0.2925757668235085
        }
      },
      "name": "default_02_BV_arterial",
      "pbrMetallicRoughness": {
        "baseColorFactor": [
          0.7176469999999998,
          0.0,
          0.011764700000000034,
          1.0
        ],
        "metallicFactor": 0.0,
        "roughnessFactor": 0.3074242331764915
      }
    },
    {
      "doubleSided": true,
      "extensions": {
        "KHR_materials_specular": {
          "specularColorFactor": [
            1.0,
            1.0,
            1.0
          ],
          "specularFactor": 0.335000009247751
        }
      },
      "name": "default_02_BV_venous",
      "pbrMetallicRoughness": {
        "baseColorFactor": [
          0.04705879999999999,
          0.12941200000000008,
          0.6039219999999996,
          1.0
        ],
        "metallicFactor": 0.0,
        "roughnessFactor": 0.2528787786310369
      }
    }
  ],
  "meshes": [
    {
      "name": "Object_0",
      "primitives": [
        {
          "attributes": {
            "NORMAL": 1,
            "POSITION": 0,
            "TEXCOORD_0": 2
          },
          "indices": 3,
          "material": 0,
          "mode": 4
        }
      ]
    },
    {
      "name": "Object_1",
      "primitives": [
        {
          "attributes": {
            "NORMAL": 5,
            "POSITION": 4,
            "TEXCOORD_0": 6
          },
          "indices": 7,
          "material": 0,
          "mode": 4
        }
      ]
    },
    {
      "name": "Object_2",
      "primitives": [
        {
          "attributes": {
            "NORMAL": 9,
            "POSITION": 8,
            "TEXCOORD_0": 10
          },
          "indices": 11,
          "material": 0,
          "mode": 4
        }
      ]
    },
    {
      "name": "Object_3",
      "primitives": [
        {
          "attributes": {
            "NORMAL": 13,
            "POSITION": 12,
            "TEXCOORD_0": 14
          },
          "indices": 15,
          "material": 1,
          "mode": 4
        }
      ]
    },
    {
      "name": "Object_4",
      "primitives": [
        {
          "attributes": {
            "NORMAL": 17,
            "POSITION": 16,
            "TEXCOORD_0": 18
          },
          "indices": 19,
          "material": 1,
          "mode": 4
        }
      ]
    },
    {
      "name": "Object_5",
      "primitives": [
        {
          "attributes": {
            "NORMAL": 21,
            "POSITION": 20,
            "TEXCOORD_0": 22
          },
          "indices": 23,
          "material": 1,
          "mode": 4
        }
      ]
    },
    {
      "name": "Object_6",
      "primitives": [
        {
          "attributes": {
            "NORMAL": 25,
            "POSITION": 24,
            "TEXCOORD_0": 26
          },
          "indices": 27,
          "material": 1,
          "mode": 4
        }
      ]
    },
    {
      "name": "Object_7",
      "primitives": [
        {
          "attributes": {
            "NORMAL": 29,
            "POSITION": 28,
            "TEXCOORD_0": 30
          },
          "indices": 31,
          "material": 2,
          "mode": 4
        }
      ]
    },
    {
      "name": "Object_8",
      "primitives": [
        {
          "attributes": {
            "NORMAL": 33,
            "POSITION": 32,
            "TEXCOORD_0": 34
          },
          "indices": 35,
          "material": 2,
          "mode": 4
        }
      ]
    },
    {
      "name": "Object_9",
      "primitives": [
        {
          "attributes": {
            "NORMAL": 37,
            "POSITION": 36,
            "TEXCOORD_0": 38
          },
          "indices": 39,
          "material": 2,
          "mode": 4
        }
      ]
    }
  ],
  "nodes": [
    {
      "children": [
        1
      ],
      "matrix": [
        -1.4652616366194156e-18,
        -1.4652616366194156e-18,
        0.006598951760679483,
        0.0,
        0.006598951760679483,
        -3.2535344121496293e-34,
        1.4652616366194156e-18,
        0.0,
        0.0,
        0.006598951760679483,
        1.4652616366194156e-18,
        0.0,
        0.0,
        0.0,
        0.0,
        1.0
      ],
      "name": "Sketchfab_model"
    },
    {
      "children": [
        2,
        3,
        4,
        5,
        6,
        7,
        8,
        9,
        10,
        11
      ],
      "name": "canine_heart.obj.cleaner.materialmerger.gles"
    },
    {
      "mesh": 0,
      "name": "Object_2"
    },
    {
      "mesh": 1,
      "name": "Object_3"
    },
    {
      "mesh": 2,
      "name": "Object_4"
    },
    {
      "mesh": 3,
      "name": "Object_5"
    },
    {
      "mesh": 4,
      "name": "Object_6"
    },
    {
      "mesh": 5,
      "name": "Object_7"
    },
    {
      "mesh": 6,
      "name": "Object_8"
    },
    {
      "mesh": 7,
      "name": "Object_9"
    },
    {
      "mesh": 8,
      "name": "Object_10"
    },
    {
      "mesh": 9,
      "name": "Object_11"
    }
  ],
  "scene": 0,
  "scenes": [
    {
      "name": "Sketchfab_Scene",
      "nodes": [
        0
      ]
    }
  ]
}
