{
	"asset":{
		"generator":"Khronos glTF Blender I/O v4.5.48",
		"version":"2.0"
	},
	"scene":0,
	"scenes":[
		{
			"name":"Scene",
			"nodes":[
				1
			]
		}
	],
	"nodes":[
		{
			"mesh":0,
			"name":"Miner"
		},
		{
			"children":[
				0
			],
			"name":"world"
		}
	],
	"materials":[
		{
			"name":"Material_0",
			"pbrMetallicRoughness":{
				"baseColorTexture":{
					"index":0
				},
				"metallicFactor":0,
				"roughnessFactor":0.699999988079071
			}
		}
	],
	"meshes":[
		{
			"name":"Miner",
			"primitives":[
				{
					"attributes":{
						"POSITION":0,
						"NORMAL":1,
						"TEXCOORD_0":2
					},
					"indices":3,
					"material":0
				}
			]
		}
	],
	"textures":[
		{
			"sampler":0,
			"source":0
		}
	],
	"images":[
		{
			"mimeType":"image/png",
			"name":"Image_0",
			"uri":"Image_0.png"
		}
	],
	"accessors":[
		{
			"bufferView":0,
			"componentType":5126,
			"count":25515,
			"max":[
				0.4673972725868225,
				1.7999999523162842,
				0.3953659236431122
			],
			"min":[
				-0.4673972725868225,
				0,
				-0.3953659236431122
			],
			"type":"VEC3"
		},
		{
			"bufferView":1,
			"componentType":5126,
			"count":25515,
			"type":"VEC3"
		},
		{
			"bufferView":2,
			"componentType":5126,
			"count":25515,
			"type":"VEC2"
		},
		{
			"bufferView":3,
			"componentType":5123,
			"count":117600,
			"type":"SCALAR"
		}
	],
	"bufferViews":[
		{
			"buffer":0,
			"byteLength":306180,
			"byteOffset":0,
			"target":34962
		},
		{
			"buffer":0,
			"byteLength":306180,
			"byteOffset":306180,
			"target":34962
		},
		{
			"buffer":0,
			"byteLength":204120,
			"byteOffset":612360,
			"target":34962
		},
		{
			"buffer":0,
			"byteLength":235200,
			"byteOffset":816480,
			"target":34963
		}
	],
	"samplers":[
		{
			"magFilter":9729,
			"minFilter":9987
		}
	],
	"buffers":[
		{
			"byteLength":1051680,
			"uri":"scene.bin"
		}
	]
}
