{
	"asset":{
		"generator":"Khronos glTF Blender I/O v4.5.48",
		"version":"2.0"
	},
	"scene":0,
	"scenes":[
		{
			"name":"Scene",
			"nodes":[
				1
			]
		}
	],
	"nodes":[
		{
			"mesh":0,
			"name":"Paramedic"
		},
		{
			"children":[
				0
			],
			"name":"world"
		}
	],
	"materials":[
		{
			"name":"Material_0.002",
			"pbrMetallicRoughness":{
				"baseColorTexture":{
					"index":0
				},
				"metallicFactor":0,
				"roughnessFactor":0.75
			}
		}
	],
	"meshes":[
		{
			"name":"Paramedic",
			"primitives":[
				{
					"attributes":{
						"POSITION":0,
						"NORMAL":1,
						"TEXCOORD_0":2
					},
					"indices":3,
					"material":0
				}
			]
		}
	],
	"textures":[
		{
			"sampler":0,
			"source":0
		}
	],
	"images":[
		{
			"mimeType":"image/png",
			"name":"Image_0",
			"uri":"Image_0.png"
		}
	],
	"accessors":[
		{
			"bufferView":0,
			"componentType":5126,
			"count":24399,
			"max":[
				0.496216744184494,
				1.7999999523162842,
				0.3288872241973877
			],
			"min":[
				-0.496216744184494,
				0,
				-0.3288872241973877
			],
			"type":"VEC3"
		},
		{
			"bufferView":1,
			"componentType":5126,
			"count":24399,
			"type":"VEC3"
		},
		{
			"bufferView":2,
			"componentType":5126,
			"count":24399,
			"type":"VEC2"
		},
		{
			"bufferView":3,
			"componentType":5123,
			"count":117588,
			"type":"SCALAR"
		}
	],
	"bufferViews":[
		{
			"buffer":0,
			"byteLength":292788,
			"byteOffset":0,
			"target":34962
		},
		{
			"buffer":0,
			"byteLength":292788,
			"byteOffset":292788,
			"target":34962
		},
		{
			"buffer":0,
			"byteLength":195192,
			"byteOffset":585576,
			"target":34962
		},
		{
			"buffer":0,
			"byteLength":235176,
			"byteOffset":780768,
			"target":34963
		}
	],
	"samplers":[
		{
			"magFilter":9729,
			"minFilter":9987
		}
	],
	"buffers":[
		{
			"byteLength":1015944,
			"uri":"scene.bin"
		}
	]
}
